<svg width="224" height="192" viewBox="0 0 224 192" fill="none" xmlns="http://www.w3.org/2000/svg">
<path d="M224 62C224 132 120.21 188.66 115.79 191C114.625 191.627 113.323 191.955 112 191.955C110.677 191.955 109.375 191.627 108.21 191C103.79 188.66 0 132 0 62C0.0185274 45.5623 6.5566 29.8031 18.1798 18.1798C29.8031 6.5566 45.5623 0.0185274 62 0C82.65 0 100.73 8.88 112 23.89C123.27 8.88 141.35 0 162 0C178.438 0.0185274 194.197 6.5566 205.82 18.1798C217.443 29.8031 223.981 45.5623 224 62Z" fill="black"/>
</svg>
